<svg width="146" height="91" viewBox="0 0 146 91" fill="none" xmlns="http://www.w3.org/2000/svg">
<g opacity="0.67" filter="url(#filter0_f_240_1362)">
<path d="M91.3297 28.4064C102.138 34.0988 127.503 40.1348 117.749 46.4421C107.994 52.7495 52.238 70.7669 29.023 63.8026C18.2143 58.1103 38.7067 39.7818 48.4614 33.4745C58.2161 27.1671 80.521 22.7141 91.3297 28.4064Z" fill="url(#paint0_linear_240_1362)" fill-opacity="0.3"/>
</g>
<g filter="url(#filter1_ii_240_1362)">
<path fill-rule="evenodd" clip-rule="evenodd" d="M74.6021 52.9888V52.9893H45.4133C39.249 52.9893 34.2518 47.9921 34.2518 41.8278C34.2518 35.6635 39.249 30.6663 45.4133 30.6663H54.4269C59.2081 30.6663 63.6007 32.3294 67.058 35.1086C72.1092 26.5042 81.4585 20.7275 92.1571 20.7275H105.11C114.019 20.7275 121.241 27.9494 121.241 36.8581C121.241 45.7668 114.019 52.9888 105.11 52.9888H74.6021Z" fill="white"/>
</g>
<defs>
<filter id="filter0_f_240_1362" x="0.340891" y="0.169931" width="145.214" height="90.8242" filterUnits="userSpaceOnUse" color-interpolation-filters="sRGB">
<feFlood flood-opacity="0" result="BackgroundImageFix"/>
<feBlend mode="normal" in="SourceGraphic" in2="BackgroundImageFix" result="shape"/>
<feGaussianBlur stdDeviation="12.8083" result="effect1_foregroundBlur_240_1362"/>
</filter>
<filter id="filter1_ii_240_1362" x="24.0052" y="12.1886" width="101.79" height="47.0625" filterUnits="userSpaceOnUse" color-interpolation-filters="sRGB">
<feFlood flood-opacity="0" result="BackgroundImageFix"/>
<feBlend mode="normal" in="SourceGraphic" in2="BackgroundImageFix" result="shape"/>
<feColorMatrix in="SourceAlpha" type="matrix" values="0 0 0 0 0 0 0 0 0 0 0 0 0 0 0 0 0 0 127 0" result="hardAlpha"/>
<feOffset dx="4.55407" dy="-8.53888"/>
<feGaussianBlur stdDeviation="8.53888"/>
<feComposite in2="hardAlpha" operator="arithmetic" k2="-1" k3="1"/>
<feColorMatrix type="matrix" values="0 0 0 0 0 0 0 0 0 0 0 0 0 0 0 0 0 0 0.2 0"/>
<feBlend mode="normal" in2="shape" result="effect1_innerShadow_240_1362"/>
<feColorMatrix in="SourceAlpha" type="matrix" values="0 0 0 0 0 0 0 0 0 0 0 0 0 0 0 0 0 0 127 0" result="hardAlpha"/>
<feOffset dx="-10.2467" dy="6.26184"/>
<feGaussianBlur stdDeviation="8.53888"/>
<feComposite in2="hardAlpha" operator="arithmetic" k2="-1" k3="1"/>
<feColorMatrix type="matrix" values="0 0 0 0 1 0 0 0 0 1 0 0 0 0 1 0 0 0 1 0"/>
<feBlend mode="normal" in2="effect1_innerShadow_240_1362" result="effect2_innerShadow_240_1362"/>
</filter>
<linearGradient id="paint0_linear_240_1362" x1="40.5019" y1="66.5916" x2="70.6929" y2="8.52867" gradientUnits="userSpaceOnUse">
<stop stop-color="#254659"/>
<stop offset="1" stop-color="#023553"/>
</linearGradient>
</defs>
</svg>
